<svg id="圖層_1" data-name="圖層 1" xmlns="http://www.w3.org/2000/svg" viewBox="0 0 42.13 47.13"><defs><style>.cls-1{fill:none;stroke:#a4110f;stroke-miterlimit:10;}.cls-2{fill:#a4110f;}</style></defs><path class="cls-1" d="M.5,14.24V32.89a4.43,4.43,0,0,0,2.2,3.82L18.86,46a4.4,4.4,0,0,0,4.41,0l16.15-9.32a4.41,4.41,0,0,0,2.21-3.82V14.24a4.4,4.4,0,0,0-2.21-3.82L23.27,1.09a4.4,4.4,0,0,0-4.41,0L2.7,10.42A4.41,4.41,0,0,0,.5,14.24Z"/><path class="cls-2" d="M6.69,16.39a3.92,3.92,0,0,1,3.72-3.47H26.76a4,4,0,0,1,2.94,1.71,4.27,4.27,0,0,1,.63,1.45l4.8-2.38a.22.22,0,0,1,.29.1.14.14,0,0,1,0,.07v2.7a.46.46,0,0,1-.28.42L21.9,23.58l13.23,6.54a.48.48,0,0,1,.31.4v2.71a.22.22,0,0,1-.22.22.18.18,0,0,1-.13,0c-1.58-.8-3.18-1.55-4.74-2.37a6.94,6.94,0,0,1-.42,1.1,3.86,3.86,0,0,1-3.65,2.06H11c-.35,0-.69,0-1,0A3.91,3.91,0,0,1,6.69,30.7V28.08a.59.59,0,0,1,.4-.48c2.72-1.34,5.43-2.7,8.16-4L7,19.48A.52.52,0,0,1,6.7,19C6.69,18.13,6.68,17.26,6.69,16.39Zm3,0a2.73,2.73,0,0,0-.1,1.07c3,1.47,6,3,9,4.43l8.86-4.39c0-.27,0-.53,0-.8a1,1,0,0,0-1-.85H10.64a1,1,0,0,0-.92.54Zm-.1,13.24a2.61,2.61,0,0,0,.11,1.08,1,1,0,0,0,.91.53H26.45a1,1,0,0,0,.86-.5,2.47,2.47,0,0,0,.13-1.15c-3-1.46-5.91-2.94-8.88-4.39L9.62,29.65Z"/></svg>