<svg id="圖層_1" data-name="圖層 1" xmlns="http://www.w3.org/2000/svg" viewBox="0 0 42.13 47.13"><defs><style>.cls-1{fill:none;stroke:#a4110f;stroke-miterlimit:10;}.cls-2{fill:#a4110f;}</style></defs><path class="cls-1" d="M.5,14.24V32.89a4.43,4.43,0,0,0,2.2,3.82L18.86,46a4.4,4.4,0,0,0,4.41,0l16.15-9.32a4.41,4.41,0,0,0,2.21-3.82V14.24a4.4,4.4,0,0,0-2.21-3.82L23.27,1.09a4.4,4.4,0,0,0-4.41,0L2.7,10.42A4.41,4.41,0,0,0,.5,14.24Z"/><g id="vlpa"><g id="vlpb"><path class="cls-2" d="M13.9,13.49V35.13c0,.23-.1.33-.29.33H9.49c-.19,0-.27-.1-.27-.33V13.49c0-.19.1-.27.29-.27h4.1a.24.24,0,0,1,.27.21A.07.07,0,0,1,13.9,13.49Z"/><path class="cls-2" d="M26,35.71a10.43,10.43,0,0,1-4.51-.94,7.34,7.34,0,0,1-3.18-2.86,9.14,9.14,0,0,1-1.15-4.79,8.58,8.58,0,0,1,4.49-7.68A10.76,10.76,0,0,1,27,18.22a4,4,0,0,1,.44,0l.65,0V11.65c0-.15.06-.24.21-.24h4.26a.19.19,0,0,1,.21.15v20c0,.38,0,.8,0,1.26s.07.86.09,1.22a.33.33,0,0,1-.21.33,16.2,16.2,0,0,1-3.42,1,18.33,18.33,0,0,1-3.24.29Zm2.06-4.2V22.27a5.67,5.67,0,0,0-.57-.1c-.23,0-.46,0-.69,0a5.12,5.12,0,0,0-2.37.54A4.33,4.33,0,0,0,22,26.89a6,6,0,0,0,.35,2.17,4.17,4.17,0,0,0,.95,1.49,3.61,3.61,0,0,0,1.43.84,5.41,5.41,0,0,0,1.74.27c.32,0,.61,0,.88,0a1.71,1.71,0,0,0,.76-.11Z"/></g></g></svg>