<svg id="圖層_1" data-name="圖層 1" xmlns="http://www.w3.org/2000/svg" viewBox="0 0 42.13 47.13"><defs><style>.cls-1{fill:none;stroke:#000;stroke-miterlimit:10;}.cls-2{fill:#333;}</style></defs><path class="cls-1" d="M.5,14.24V32.89a4.43,4.43,0,0,0,2.2,3.82L18.86,46a4.4,4.4,0,0,0,4.41,0l16.15-9.32a4.41,4.41,0,0,0,2.21-3.82V14.24a4.4,4.4,0,0,0-2.21-3.82L23.27,1.09a4.4,4.4,0,0,0-4.41,0L2.7,10.42A4.41,4.41,0,0,0,.5,14.24Z"/><path class="cls-2" d="M8.28,10.78H20.45V23H8.28Z"/><path class="cls-2" d="M21.67,10.78H33.85V23H21.67Z"/><path class="cls-2" d="M8.28,24.17H20.45V36.35H8.28Z"/><path class="cls-2" d="M21.67,24.17H33.85V36.35H21.67Z"/></svg>