<svg id="圖層_1" data-name="圖層 1" xmlns="http://www.w3.org/2000/svg" viewBox="0 0 42.13 47.13"><defs><style>.cls-1{fill:none;stroke:#333;stroke-miterlimit:10;}.cls-2{fill:#333;}</style></defs><path class="cls-1" d="M.5,14.24V32.89a4.43,4.43,0,0,0,2.2,3.82L18.86,46a4.4,4.4,0,0,0,4.41,0l16.15-9.32a4.41,4.41,0,0,0,2.21-3.82V14.24a4.4,4.4,0,0,0-2.21-3.82L23.27,1.09a4.4,4.4,0,0,0-4.41,0L2.7,10.42A4.41,4.41,0,0,0,.5,14.24Z"/><path class="cls-2" d="M30.08,27.53c-.16,0-.3.13-.44.43-1.65,3.34-4.5,5.71-7.8,5.71-3.81,0-6.18-3.44-6.18-8.2,0-8,4.49-12.71,8.43-12.71a2.77,2.77,0,0,1,3,3c0,2.19-1.24,3.35-1.24,4.12,0,.34.21.55.64.55,1.72,0,3.73-2,3.73-4.75S27.84,11,23.9,11c-6.52,0-12.31,6-12.31,14.4,0,6.47,3.7,10.74,9.4,10.74,6.05,0,9.54-6,9.54-8,0-.43-.22-.63-.45-.63Z"/></svg>