<svg id="圖層_1" data-name="圖層 1" xmlns="http://www.w3.org/2000/svg" viewBox="0 0 42.13 47.13"><defs><style>.cls-1{fill:none;stroke:#333;stroke-miterlimit:10;}.cls-2{fill:#4d4d4d;}</style></defs><path class="cls-1" d="M.5,14.24V32.89a4.43,4.43,0,0,0,2.2,3.82L18.86,46a4.4,4.4,0,0,0,4.41,0l16.15-9.32a4.41,4.41,0,0,0,2.21-3.82V14.24a4.4,4.4,0,0,0-2.21-3.82L23.27,1.09a4.4,4.4,0,0,0-4.41,0L2.7,10.42A4.41,4.41,0,0,0,.5,14.24Z"/><g id="Outlined_Mnemonics_Logos" data-name="Outlined Mnemonics Logos"><g id="Ps"><path class="cls-2" d="M7.62,32.83V12.64c0-.14.06-.22.19-.22.34,0,.65,0,1.1,0l1.49,0,1.71,0c.61,0,1.2,0,1.79,0a11.57,11.57,0,0,1,4,.61,7.22,7.22,0,0,1,2.63,1.61A6.22,6.22,0,0,1,22,16.76a7.36,7.36,0,0,1,.45,2.55,7,7,0,0,1-1.17,4.18,6.76,6.76,0,0,1-3.16,2.39,12.78,12.78,0,0,1-4.42.67c-.47,0-.78,0-1,0s-.47,0-.84,0v6.3a.25.25,0,0,1-.22.28H7.85C7.7,33.09,7.62,33,7.62,32.83ZM11.9,16.21V22.8c.27,0,.53,0,.76,0h1A7.51,7.51,0,0,0,16,22.49a3.39,3.39,0,0,0,1.61-1,3,3,0,0,0,.61-2,3.28,3.28,0,0,0-.46-1.75,2.84,2.84,0,0,0-1.37-1.12A5.84,5.84,0,0,0,14,16.17c-.51,0-1,0-1.33,0a4.33,4.33,0,0,0-.8,0Z"/><path class="cls-2" d="M34.7,21.61a6.86,6.86,0,0,0-1.89-.67,10.08,10.08,0,0,0-2.19-.26,3.86,3.86,0,0,0-1.18.14,1,1,0,0,0-.61.39,1.05,1.05,0,0,0-.16.53.84.84,0,0,0,.2.51,2,2,0,0,0,.67.53c.45.24.92.45,1.39.65a13.92,13.92,0,0,1,3,1.43,4.65,4.65,0,0,1,1.55,1.63,4.18,4.18,0,0,1,.45,2,4.53,4.53,0,0,1-.76,2.61A4.89,4.89,0,0,1,33,32.87a9,9,0,0,1-3.55.63,13.28,13.28,0,0,1-2.67-.26,7.39,7.39,0,0,1-2-.63.37.37,0,0,1-.22-.37V28.83a.22.22,0,0,1,.08-.18.15.15,0,0,1,.18,0,8.22,8.22,0,0,0,2.43,1,9,9,0,0,0,2.32.3,3.73,3.73,0,0,0,1.63-.28.92.92,0,0,0,.53-.82,1,1,0,0,0-.48-.79,8.34,8.34,0,0,0-1.92-.92,12,12,0,0,1-2.79-1.41A5.21,5.21,0,0,1,25,24a4.27,4.27,0,0,1-.45-2,4.65,4.65,0,0,1,.67-2.38,4.86,4.86,0,0,1,2.06-1.8,7.61,7.61,0,0,1,3.47-.69,16.7,16.7,0,0,1,2.44.18,6.83,6.83,0,0,1,1.68.45.35.35,0,0,1,.2.18.85.85,0,0,1,0,.23v3.2a.25.25,0,0,1-.1.2A.5.5,0,0,1,34.7,21.61Z"/></g></g></svg>