<svg id="圖層_1" data-name="圖層 1" xmlns="http://www.w3.org/2000/svg" viewBox="0 0 42.13 47.13"><defs><style>.cls-1{fill:none;stroke:#a4110f;stroke-miterlimit:10;}.cls-2{fill:#a4110f;}</style></defs><path class="cls-1" d="M.5,14.24V32.89a4.43,4.43,0,0,0,2.2,3.82L18.86,46a4.4,4.4,0,0,0,4.41,0l16.15-9.32a4.41,4.41,0,0,0,2.21-3.82V14.24a4.4,4.4,0,0,0-2.21-3.82L23.27,1.09a4.4,4.4,0,0,0-4.41,0L2.7,10.42A4.41,4.41,0,0,0,.5,14.24Z"/><path class="cls-2" d="M20.64,29.25H13.11L11.57,34a.35.35,0,0,1-.38.28H7.38c-.22,0-.28-.12-.22-.36l6.52-18.77c.06-.21.12-.43.2-.67A7.2,7.2,0,0,0,14,13.17a.2.2,0,0,1,.17-.22h5.24c.16,0,.24.06.26.16L27.06,34c.06.22,0,.32-.2.32H22.63a.32.32,0,0,1-.33-.22Zm-6.35-4.11h5.14c-.12-.43-.28-.93-.47-1.46s-.36-1.13-.54-1.74-.39-1.24-.59-1.86-.38-1.22-.55-1.81-.3-1.09-.44-1.57h0a25.15,25.15,0,0,1-.69,2.61c-.3,1-.61,2-.93,3S14.59,24.29,14.29,25.14Zm17.29-8.65a2.47,2.47,0,0,1-1.8-.71,2.6,2.6,0,0,1-.69-1.86,2.37,2.37,0,0,1,.73-1.8,2.56,2.56,0,0,1,1.8-.71,2.4,2.4,0,0,1,1.84.71,2.54,2.54,0,0,1,.67,1.8,2.53,2.53,0,0,1-.71,1.86,2.35,2.35,0,0,1-1.84.71ZM29.31,34.07V18.48c0-.21.08-.29.26-.29h4c.19,0,.27.11.27.29V34.07c0,.22-.08.32-.27.32h-4A.28.28,0,0,1,29.31,34.07Z"/></svg>