<svg id="圖層_1" data-name="圖層 1" xmlns="http://www.w3.org/2000/svg" viewBox="0 0 89.61 75"><defs><style>.cls-1{fill:#333;}</style></defs><path class="cls-1" d="M74.87,33.73a3,3,0,0,0-3-2.94H22.4a2.95,2.95,0,1,0,0,5.89H71.92A3,3,0,0,0,74.87,33.73ZM22.4,42.58a2.95,2.95,0,1,0,0,5.89H42.92a2.95,2.95,0,1,0,0-5.89Zm33-17.69a2.95,2.95,0,1,0,0-5.89H36.55a2.95,2.95,0,1,0,0,5.89ZM84.89,0H4.72A4.72,4.72,0,0,0,0,4.72v59a4.71,4.71,0,0,0,4.72,4.71H49.51V59h-33a7.07,7.07,0,0,0-7.08-7.07V16.51a7.08,7.08,0,0,0,7.08-7.08H73.1a7.08,7.08,0,0,0,7.07,7.08V51.88A7.07,7.07,0,0,0,73.1,59h0v9.43h11.8a4.72,4.72,0,0,0,4.72-4.71V4.72A4.72,4.72,0,0,0,84.89,0Z"/><path class="cls-1" d="M55.4,64V74a1.05,1.05,0,0,0,1.06,1,1,1,0,0,0,.61-.2l3.62-2.58a1,1,0,0,1,1.22,0l3.62,2.58a1,1,0,0,0,.61.2,1,1,0,0,0,1-1V64A14,14,0,0,1,55.4,64Zm5.9-4.59a8.26,8.26,0,1,0-8.25-8.26A8.25,8.25,0,0,0,61.3,59.41Z"/></svg>