<svg id="圖層_1" data-name="圖層 1" xmlns="http://www.w3.org/2000/svg" viewBox="0 0 119.57 110.26"><defs><style>.cls-1{fill:#fff;}</style></defs><path class="cls-1" d="M96.05,29.3A79.5,79.5,0,0,1,75.41,20C65.24,13.34,59.44,10.49,61,4.29S70.32-.29,75.31,2.35s20.13,14.34,30.61,23.8,15.15,12.51,13.22,19.43-13.22,4.06-19.63,14.13-2.84,10-10.88,20.45S81,97,87.51,101.61s10.48.11,7,8.65h-12a19.86,19.86,0,0,1-9.66-3.05c-5.29-3.15-7.2-7.43-12.14-8.44s-10.34-2.75-7.29-5S57,82.8,57,82.8s.71-2.64-1.42-2.64-2.9,1.52-3,3.25A10.83,10.83,0,0,1,47.24,91c-3.77,2.23-5,1.52-6.1,3.46s.5,4,3.86,4.88,13,5.39,13,5.39,4.27.81,1.12,5.49H12.35S10,109.75,10,105.17s5.5-5.49,4.38-11.49-9.77-15.56-10-20.75,3.26-17.18,15.36-24.1S35.85,50.05,52,50.76,80.09,41.3,80.9,36a8,8,0,0,1,5.59-6.51Z"/><path class="cls-1" d="M77.14,28.9,66.36,20.25s-4.07-1.93-7.32,0-4.58,5.8-1.73,8.65Z"/><path class="cls-1" d="M12.5,48.79c1-.87,2.13-2,1.18-2.91-1.43-1.42-6.53-3.56-9.27-1.63S-1.48,49.64.76,53.61c2,3.54,4.93,2.19,7.3-.13,1.22-1.2,2.29-2.54,3.44-3.8C11.74,49.43,12.11,49.13,12.5,48.79Z"/></svg>