<svg id="圖層_1" data-name="圖層 1" xmlns="http://www.w3.org/2000/svg" viewBox="0 0 108.29 100.8"><defs><style>.cls-1{fill:#fff;}</style></defs><path class="cls-1" d="M106.77,36.12,94.92,28.2V8.55h2.13a2.27,2.27,0,0,0,2.26-2.27v-4A2.27,2.27,0,0,0,97.05,0H75.21a2.27,2.27,0,0,0-2.27,2.27v4a2.27,2.27,0,0,0,2.27,2.27h2.13v9.6L55.84,4.64a3.22,3.22,0,0,0-3.38,0L1.53,36.12A3.2,3.2,0,0,0,0,38.85v6.23a3.21,3.21,0,0,0,4.9,2.73L52.46,18.43a3.22,3.22,0,0,1,3.38,0l47.55,29.38a3.21,3.21,0,0,0,4.9-2.73V38.85A3.2,3.2,0,0,0,106.77,36.12Z"/><path class="cls-1" d="M54,52.69a8.93,8.93,0,0,0-1.15,17.78c.38,0,.76,0,1.15,0s.76,0,1.14,0A8.93,8.93,0,0,0,54,52.69Z"/><path class="cls-1" d="M103.2,95.46H92.46V49.34L55.84,26.71a3.22,3.22,0,0,0-3.38,0L16.21,49.11V95.46H6.07a2.15,2.15,0,0,0-2.15,2.15v1a2.16,2.16,0,0,0,2.15,2.15H103.2a2.15,2.15,0,0,0,2.15-2.15v-1A2.15,2.15,0,0,0,103.2,95.46Zm-37.56,0V86.59A11.64,11.64,0,0,0,55.23,75c-.4,0-.81.06-1.21.06s-.82,0-1.22-.06A11.64,11.64,0,0,0,42.39,86.59v8.87H37.85V86.59A16.15,16.15,0,0,1,46.1,72.51a13.47,13.47,0,1,1,15.83,0,16.15,16.15,0,0,1,8.25,14.08v8.87Z"/></svg>