<svg id="圖層_1" data-name="圖層 1" xmlns="http://www.w3.org/2000/svg" viewBox="0 0 117.65 117.65"><defs><style>.cls-1{fill:#fff;}</style></defs><polygon class="cls-1" points="103.66 33.65 93.83 23.82 84.01 13.99 94.41 0 106.03 11.62 117.65 23.24 103.66 33.65"/><path class="cls-1" d="M57.28,66.09,76.79,46.58l.07-.2a5.25,5.25,0,1,0-5.59-5.59l-.2.07L51.56,60.37l5.9-35.1,18.85-9.82,13,13L102.2,41.34,92.38,60.19Z"/><path class="cls-1" d="M32.91,52.48c-6.9,12.87-.13,23.09-.13,23.09l1.72-1.73,4.66,4.66,4.65,4.65-1.73,1.72s10.22,6.77,23.1-.13l-1.86-1.86,9.09-9.09,9.29,9.29-9.23,9.23-2.91-2.92S62.26,95,49.78,93.9l13.84,13.84a5,5,0,1,1-4.38,4.38L37,89.92l-2.39,2.39L30,87.65,25.35,83l2.38-2.39L5.53,58.41A5,5,0,1,1,9.91,54L23.75,67.87C22.69,55.4,28.27,48.1,28.27,48.1l-2.92-2.92L34.57,36l9.29,9.29-9.09,9.09Z"/></svg>