<svg id="圖層_1" data-name="圖層 1" xmlns="http://www.w3.org/2000/svg" viewBox="0 0 354.52 72.04"><defs><style>.cls-1{fill:#fff;}</style></defs><path class="cls-1" d="M0,.86H6.46A35.57,35.57,0,0,1,14,1.37a8.31,8.31,0,0,1,4.54,3A8.81,8.81,0,0,1,20.28,10a8.87,8.87,0,0,1-1.73,5.63,8.35,8.35,0,0,1-4.74,3,39.91,39.91,0,0,1-8.25.56H3.24V35H0ZM3.24,4.2V15.79l5.5.07a13.54,13.54,0,0,0,4.87-.64A5,5,0,0,0,16,13.16,5.91,5.91,0,0,0,16.92,10,5.84,5.84,0,0,0,16,6.83a4.89,4.89,0,0,0-2.33-2A13.1,13.1,0,0,0,9,4.2Z"/><path class="cls-1" d="M56.82,0A16.44,16.44,0,0,1,69.16,5.18a17.71,17.71,0,0,1,5,12.75,17.8,17.8,0,0,1-5,12.72,16.73,16.73,0,0,1-24.27,0,17.55,17.55,0,0,1-5-12.59A19,19,0,0,1,42.19,9a17,17,0,0,1,6.17-6.58A15.94,15.94,0,0,1,56.82,0ZM57,3.32a12.85,12.85,0,0,0-6.83,2,13.86,13.86,0,0,0-5,5.32,15.5,15.5,0,0,0-1.81,7.46,14.31,14.31,0,0,0,4,10.28A12.9,12.9,0,0,0,57,32.56a13.29,13.29,0,0,0,7-1.93,13.43,13.43,0,0,0,5-5.28,15.44,15.44,0,0,0,1.8-7.43A15.08,15.08,0,0,0,69,10.56,13.76,13.76,0,0,0,63.9,5.3,13.17,13.17,0,0,0,57,3.32Z"/><path class="cls-1" d="M95.41.86h6.46a38.23,38.23,0,0,1,7.33.46,8.37,8.37,0,0,1,4.7,3A8.86,8.86,0,0,1,115.71,10a9.51,9.51,0,0,1-1.25,4.91,7.9,7.9,0,0,1-3.56,3.19,15.59,15.59,0,0,1-6.4,1.11L116.17,35h-4L100.49,19.16H98.65V35H95.41ZM98.65,4.2V15.81l5.59,0a13.13,13.13,0,0,0,4.81-.65,5,5,0,0,0,2.43-2.08,6,6,0,0,0,.87-3.19,5.7,5.7,0,0,0-.88-3.12,5,5,0,0,0-2.32-2,13.25,13.25,0,0,0-4.77-.61Z"/><path class="cls-1" d="M134,4.2V.86h17.78V4.2h-7.24V35h-3.31V4.2Z"/><path class="cls-1" d="M171.1.86h16.26V4.2h-13V14.91h13v3.34h-13V35H171.1Z"/><path class="cls-1" d="M223.06,0A16.42,16.42,0,0,1,235.4,5.18a17.71,17.71,0,0,1,5,12.75,17.81,17.81,0,0,1-5,12.72,16.73,16.73,0,0,1-24.27,0,17.55,17.55,0,0,1-5-12.59A19,19,0,0,1,208.43,9a17,17,0,0,1,6.17-6.58A16,16,0,0,1,223.06,0Zm.14,3.32a12.85,12.85,0,0,0-6.83,2,13.86,13.86,0,0,0-5,5.32,15.5,15.5,0,0,0-1.81,7.46,14.31,14.31,0,0,0,4,10.28,12.9,12.9,0,0,0,9.67,4.2,13.56,13.56,0,0,0,12-7.21,15.44,15.44,0,0,0,1.8-7.43,15.08,15.08,0,0,0-1.8-7.36,13.76,13.76,0,0,0-5.07-5.26A13.17,13.17,0,0,0,223.2,3.32Z"/><path class="cls-1" d="M261.47.86h3.25V31.72H277.2V35H261.47Z"/><path class="cls-1" d="M296.48.86h3.25V35h-3.25Z"/><path class="cls-1" d="M337.21,0a16.41,16.41,0,0,1,12.34,5.18,17.67,17.67,0,0,1,5,12.75,17.8,17.8,0,0,1-4.95,12.72,16,16,0,0,1-12.09,5.23,16.2,16.2,0,0,1-12.19-5.2,17.58,17.58,0,0,1-5-12.59A19,19,0,0,1,322.59,9a16.94,16.94,0,0,1,6.17-6.58A15.91,15.91,0,0,1,337.21,0Zm.15,3.32a12.85,12.85,0,0,0-6.83,2,13.86,13.86,0,0,0-5,5.32,15.39,15.39,0,0,0-1.81,7.46,14.31,14.31,0,0,0,4,10.28,12.89,12.89,0,0,0,9.67,4.2,13.29,13.29,0,0,0,7-1.93,13.5,13.5,0,0,0,5-5.28,15.44,15.44,0,0,0,1.8-7.43,15.08,15.08,0,0,0-1.8-7.36A13.76,13.76,0,0,0,344.3,5.3,13.2,13.2,0,0,0,337.36,3.32Z"/><path class="cls-1" d="M90.64,52.93h10.41V54.8h-8.6v6H101v1.87H92.45v7.51H101V72H90.64Z"/><path class="cls-1" d="M116.92,52.93h3.62a21,21,0,0,1,4.09.26,4.64,4.64,0,0,1,2.63,1.67,4.93,4.93,0,0,1,1,3.16,5.34,5.34,0,0,1-.7,2.74,4.44,4.44,0,0,1-2,1.79,8.69,8.69,0,0,1-3.58.62L128.54,72h-2.25l-6.53-8.87h-1V72h-1.81Zm1.81,1.87v6.5l3.13,0a7.46,7.46,0,0,0,2.69-.37,2.81,2.81,0,0,0,1.36-1.16A3.32,3.32,0,0,0,126.4,58a3.23,3.23,0,0,0-.49-1.75,2.87,2.87,0,0,0-1.3-1.12,7.66,7.66,0,0,0-2.67-.34Z"/><path class="cls-1" d="M144.55,52.93h1.81V72h-1.81Z"/><path class="cls-1" d="M163.17,72V52.93h.4l12.08,14.65V52.93h1.79V72H177l-12-14.47V72Z"/><path class="cls-1" d="M203.47,52.93h9.1V54.8h-7.28v6h7.28v1.87h-7.28V72h-1.82Z"/><path class="cls-1" d="M230.73,52.93,239.2,72h-2l-2.85-6.28h-7.83L223.73,72h-2l8.58-19.11ZM230.5,57l-3.11,6.92h6.21Z"/><path class="cls-1" d="M249.61,72V52.93h.4l12.08,14.65V52.93h1.79V72h-.41l-12-14.47V72Z"/></svg>