<svg id="圖層_1" data-name="圖層 1" xmlns="http://www.w3.org/2000/svg" viewBox="0 0 390 116"><defs><style>.cls-1,.cls-2{fill:#fff;stroke-width:0.25px;}.cls-1,.cls-2,.cls-3{stroke:#fff;stroke-linecap:round;stroke-linejoin:round;}.cls-1{fill-rule:evenodd;}.cls-3{fill:none;}</style></defs><path class="cls-1" d="M31.41,87.7A20.11,20.11,0,0,0,45.55,75.59a16.78,16.78,0,0,0,1.14-5.79c-.14-.93-1.15-1-1.52-1.79,4-2.83,8.22,4.87,4.69,7.57A9.58,9.58,0,0,0,48,70.39c.33.37,0,1.63-.09,2A24.84,24.84,0,0,1,47.05,76c-.72,2-3,7.56-7.76,10.81a20.71,20.71,0,0,1-10.88,4c-8.92.42-13.76-5.29-15.86-9.39-1.84-3.59-2.9-9-.28-12.64,1-1.35,3.29-2.51,4.13-.41.1.22-.76,1.52-.89,1.79-.28.59-.55,1.19-.77,1.8A12,12,0,0,0,14,75.65a10.48,10.48,0,0,0,2.43,6.53c6.45,8.71,14.9,5.57,14.9,5.57a10.55,10.55,0,0,1-3.6-5.42c-3.28-1.43-7.94-4.47-7.84-9.09,0-.37.17-5.09,5.64-8.53a18.79,18.79,0,0,1,3.44-1.65c.43-1.13.27-2.85,1.24-3.44a2,2,0,0,1,1.38,2.47c5.33-2,11.3-3.63,16.1-7.16,8.88-6.5,14-19.37,10.19-30.13-1.53-4.3-5.94-8-10.57-5.6C39.89,23,40,32.07,39.69,39.25c-.11,3-.3,6-.67,9s-.62,6.83-3.18,9a5.59,5.59,0,0,1-8-.57c-5.55-6.86-3.61-15.16.63-21.66,3.93-6,8.48-12.62,10.38-19.66.73-2.71.78-6.13-1.54-8.17-6-5.25-15.67-2.69-21,2.21-9.45,8.68-9.52,18.16-9.57,21-.34,19.19,12.49,26.44,14.06,28,.74.75,2.4,2,2.65,3.11.52,2.29-2.87.55-3.91,0C10.45,57.05,4.68,47,3,37.26c-1.86-10.56.8-22,8.79-29.44C16,3.89,32.85-5,41.17,7.21c4.09,6-.07,13.45-3.15,18.68-3.62,6.14-9.68,13.25-10.88,21A15.87,15.87,0,0,0,28,54.6c1,2.21,3.64,4.19,5.78,3.17,1.16-.56,2.8-3.46,3.3-4.82,1.08-2.92.8-7,.83-10.32.14-15.84,4.8-22.92,9.63-25,2.51-1.08,5.15-1.56,7.58,0C60.65,21.2,62,31.06,60.18,39.79,58.05,49.86,49.34,57.12,40,60.23c-1,.35-8.59,2.15-8.74,3-.2,1.13-.46,2.19-.69,3.3,3.87-2,12-1.58,13.08,3.85a8.44,8.44,0,0,1-1.12,5.53,13.25,13.25,0,0,1-9.76,6.82,18.14,18.14,0,0,1-3.44,0A9.33,9.33,0,0,0,31.41,87.7Zm8-12c1.24-1.69,2.78-5.2,1.24-7.16-2-2.6-7.35-1.28-10.46-.41-.13,2-.75,3.47-.83,5.51a14.12,14.12,0,0,0,5.23-2.9c.61-.56.89-1.46,1.66-1.51a1.78,1.78,0,0,1,1.65,1.24c-1.34,3.69-5.45,5.67-9.09,6.19a13.91,13.91,0,0,0,.14,3.59A11.77,11.77,0,0,0,39.39,75.72ZM23.15,73.11c-.42-2.8,3.32-3.72,4.82-5.51a13.54,13.54,0,0,0,.69-3c-3.34,2-6.3,4.34-6.16,9.65a17.8,17.8,0,0,0,4.64.12c.16-1.49.42-4.81.42-4.81C26.11,70.75,24.16,71.45,23.15,73.11Zm3.72,3.57s-3.08,0-3.72-.13a9.32,9.32,0,0,0,4.13,3.3A18.17,18.17,0,0,0,26.87,76.68Z"/><path class="cls-1" d="M19.75,103.33c1.84,3.17,5.07,4.6,8.25,6.1,3.74,1.76,7.36,3.78,11.07,5.59C43.56,111.3,51,87.93,40.46,89.14c-1.6.19-5.23,2.09-4.55,9-4.39-2.28-10.06-7.12-15.09-4A7.6,7.6,0,0,0,19.75,103.33Zm19.1-9.45c-.29-1.95.86-2.91,3.16-3.09,1.29,1.44,3.29,5.54,1.35,7.23C42.69,95.41,42.17,92.6,38.85,93.88Zm1.31.37c2.14,1.26,3.63,8.42,1.21,9.75C42.67,100,38.14,96.33,40.16,94.25Zm-1.73,14c-.4-3.43-.29-6.5,1.55-8.39C40.31,103.27,40.69,106.68,38.43,108.29ZM30.27,98c.16,2.35-4-1-6.74.64a2.29,2.29,0,0,0,.57,3A4.56,4.56,0,0,1,20.3,98C23.49,95.36,27.2,97.92,30.27,98Zm-.75,2.64c-2-.17-.46,2.14-2.07,2.25-.68-1.56-2.8-1-3.09-3.16C25.85,100.34,28.83,98.8,29.52,100.62Zm-6.06-5.73c2.46-.79,3.56.43,5.64.19C34.71,99.47,25.76,96.34,23.46,94.89Zm11.4,11c-1.65-1.42-3.61-2.39-5.12-4C32.18,101.6,35.74,103.76,34.86,105.84Zm-14.38-3.53c3.38-.7,7.62,3.6,11,5.41C27.4,106.51,23.56,105,20.48,102.31Z"/><path class="cls-2" d="M83.88,82.52c.1.06.11.16,0,.31a16.24,16.24,0,0,0-1.47,5.67c0,.29-.2.39-.47.31a4.39,4.39,0,0,1-2.6-2.1.21.21,0,0,1,.12-.31,3.84,3.84,0,0,0,1-.91,24.28,24.28,0,0,1,3.07-2.91C83.68,82.48,83.79,82.46,83.88,82.52Zm6.5-2.88A3.88,3.88,0,0,0,92,78.7,3,3,0,0,1,94.83,78a3.08,3.08,0,0,1,1.69.94,2.73,2.73,0,0,1,.87,1.66c0,.31,0,.47-.15.47a10.16,10.16,0,0,1-3.19-.16c-.53-.14-.56-.26-.1-.34a1.56,1.56,0,0,0,.78-.28,1.3,1.3,0,0,0,.25-1,1.26,1.26,0,0,0-.68-.75,1.35,1.35,0,0,0-1.1,0,1.94,1.94,0,0,0-1,1.76,10.56,10.56,0,0,1,2.32,1.5,2.14,2.14,0,0,1,.81-.25c.23-.06.35-.06.37,0s.06.23-.09.37l-.41.47a4.45,4.45,0,0,1,.38.28,35.17,35.17,0,0,1,3.66,5.2c.38.38.16.67-.66.88a22.69,22.69,0,0,1-6.85.78,11.82,11.82,0,0,0-2.38,0,.88.88,0,0,1-.66-.16,6.59,6.59,0,0,1-3.16-4.94,2.22,2.22,0,0,0-.37-.91C85,83.23,85,83,85.22,83a1.94,1.94,0,0,1,1.6.09c.16.1.17.22,0,.35A2.29,2.29,0,0,0,86.91,85c.33,1.13.86,1.78,1.57,2A11.22,11.22,0,0,0,93.7,87c1.23-.28,1.94-.6,2.13-1a1.61,1.61,0,0,0,0-.88,6,6,0,0,0-1.22-2.29,7.29,7.29,0,0,0-2,1.63,7.09,7.09,0,0,1-1.1,1c-.14.09-.35.06-.62-.09a2.5,2.5,0,0,1-1-.81,5.15,5.15,0,0,1-1.19-2.16,1.39,1.39,0,0,1,.37-1.29,9.72,9.72,0,0,0-4.28,1.38c-.17.13-.3.08-.38-.12l-.72-1.57c-.06-.27.07-.37.41-.31a26.12,26.12,0,0,0,3.16-.41,4.64,4.64,0,0,1,.91-.16l.06-1.47a9.08,9.08,0,0,0-2.07.72.76.76,0,0,1-.4.07.2.2,0,0,1-.16-.16A5.28,5.28,0,0,0,84.88,78c-1.46-2.19-2.19-3.44-2.19-3.76,0-.1.09-.22.34-.34q3.91-1.29,5.35-1.6c0-.5,0-.93,0-1.31a39.16,39.16,0,0,0-4.44,1.22,6.62,6.62,0,0,0-1.41.53c-.23.13-.39.13-.47,0a5.05,5.05,0,0,1-.91-1.34c-.1-.23-.06-.35.13-.35a23,23,0,0,0,3.56-.78,28.63,28.63,0,0,1,3.48-.88c0-.6-.08-1-.1-1.28a7.34,7.34,0,0,1-.72.25c-.2.06-.37,0-.5-.28s-.23-.48-.43-.94a.31.31,0,0,0-.19,0A10.51,10.51,0,0,0,82,68.75a.39.39,0,0,1-.47-.09c-.29-.44-.69-1.1-1.19-2-.12-.27-.08-.41.13-.43.66-.11,1.26-.22,1.78-.35,2-.46,3.19-.7,3.5-.72A19.91,19.91,0,0,1,85.19,63a5.13,5.13,0,0,0-.16-.78c0-.27.08-.41.35-.41.71.09,1.23.17,1.56.25h0c.94,0,1.19.38.75,1.07,0,0,0,.09,0,.22a11.93,11.93,0,0,0,.66,4.25c.27-.19,1-.09,2.19.28.52.29.68.51.47.66a.69.69,0,0,0-.25.28c1.31-.29,2.83-.54,4.54-.75a5.18,5.18,0,0,0,1.47-.31.22.22,0,0,1,.34.06,2.72,2.72,0,0,0,.57.78c.27.19.37.54.31,1.07a3.59,3.59,0,0,0,0,.43c0,.15-.17.18-.38.1-1.4-.44-3.79-.35-7.2.28,0,.29,0,.73,0,1.31a.38.38,0,0,1,.25-.06,10.6,10.6,0,0,1,1.19-.28c2.32-.58,4.2-.38,5.64.63.31.2.46.35.46.43a1,1,0,0,1-.15.35,8.62,8.62,0,0,0-.85,1.5c-.33.81-.7,1.61-1.09,2.38s-.53,1-.85.81a10.92,10.92,0,0,0-4.66.5A10.86,10.86,0,0,0,90.38,79.64Zm-2-2.69c0-.34,0-.66.06-1a11.94,11.94,0,0,0-1.44.4c-.21.07-.32.06-.34,0-.13-.35-.23-.65-.31-.9s.06-.23.31-.32c.44-.14,1-.32,1.78-.53V73.41c-1.65.54-2.63,1.1-2.94,1.66a1.09,1.09,0,0,0,0,.94,6.55,6.55,0,0,0,.5,1.16.59.59,0,0,0,.69.25C87.2,77.25,87.77,77.09,88.35,77Zm5.38,5.16a4.79,4.79,0,0,0-1.91-1.22,2.91,2.91,0,0,0-1.47.19c-.58.25-.91.54-1,.87a1.09,1.09,0,0,0,.13,1v0a3.07,3.07,0,0,0,2.44.06,7.09,7.09,0,0,1,1.44-.75A.69.69,0,0,1,93.73,82.11Zm-.34-6.35a.65.65,0,0,0,.53-.44,6.4,6.4,0,0,0,.44-1.6q.06-.64-.06-.78a2.52,2.52,0,0,0-1.19-.34,9.36,9.36,0,0,0-2.54.22l-.22.06v1.19c.75-.25,1.32-.42,1.69-.5s.45,0,.47.09a3.49,3.49,0,0,1,.19.94.25.25,0,0,1-.25.31q-.53.16-2.13.57v.87a.26.26,0,0,0,0,.1C91.33,76.18,92.37,76,93.39,75.76ZM95.52,66c-.9.11-1.47.19-1.72.25a6.81,6.81,0,0,0-2.29,1.85c-.19.15-.32.18-.41.09s-.11-.22,0-.43a1.45,1.45,0,0,0,.16-.47,7.13,7.13,0,0,1,.34-.88,3.45,3.45,0,0,1,.32-1c-.09-.21-.17-.42-.25-.63s0-.34.18-.34h.35c.67-2.44,1-3.69,1-3.76.06-.48.29-.64.69-.5.9.36,1.48.61,1.75.75s.28.2.16.35a13.87,13.87,0,0,0-1.54,3c.13,0,1.45-.19,4-.44l.72-.06c.25,0,.38.17.4.5a4.77,4.77,0,0,1,0,1.63c-.06.27-.19.34-.4.22A8.87,8.87,0,0,0,95.52,66Zm7.79,16.4c.17.08.24.29.22.63a5.2,5.2,0,0,0-.1.78c-.08.46-.18,1.08-.31,1.85-.06.23-.32.35-.78.37-.25.11-.42,0-.5-.25a23.81,23.81,0,0,0-2.54-3.16,9.91,9.91,0,0,1-1-1.28c0-.15.22-.18.53-.1A27.89,27.89,0,0,1,103.31,82.36Z"/><path class="cls-2" d="M109.66,71.75c.11.07.12.17,0,.32q-2.22,4.62-2.22,7.26c0,.29-.15.39-.47.31a4.41,4.41,0,0,1-2.63-2,.22.22,0,0,1,.1-.34A4.8,4.8,0,0,0,105.66,76a36.25,36.25,0,0,1,3.66-4.19C109.46,71.71,109.58,71.69,109.66,71.75Zm4.82-1.69a2.14,2.14,0,0,1,.35-1.25,2.32,2.32,0,0,1,1.56-1.09A4.93,4.93,0,0,1,118,67.5a8.88,8.88,0,0,1,2.5,2.34,8,8,0,0,1,2.35-.87c.27-.09.44-.09.5,0s.06.29-.13.5A6.32,6.32,0,0,1,121.52,71l-.09.06a18.13,18.13,0,0,1,2.41,3.54,55.76,55.76,0,0,1,2.66,8.14c.35.64-.06,1-1.25,1a24.13,24.13,0,0,1-6.89-.5A8.73,8.73,0,0,0,116,82.8a1.34,1.34,0,0,1-.72-.31A12,12,0,0,1,113.23,80q-1.41-2.19-1.31-6.51a5.79,5.79,0,0,0-.35-1.75c-.17-.39-.11-.63.16-.72a2.29,2.29,0,0,1,2.13.47c.18.19.17.36,0,.5-.5.5-.68,1.57-.56,3.19.27,2.44,1,4,2.29,4.54a10,10,0,0,0,4.94.88c1.34,0,2.19-.32,2.57-.94a2.43,2.43,0,0,0,.28-1.66,10.7,10.7,0,0,0-2.47-6.48,11.92,11.92,0,0,0-1.35,1.32,10.65,10.65,0,0,1-1.38,1.34q-.31.2-.81-.12a4.26,4.26,0,0,1-2.22-2.69A1.84,1.84,0,0,1,114.48,70.06Zm4,.82a8,8,0,0,1,1.34-.75,6.58,6.58,0,0,0-2-1.85,3.28,3.28,0,0,0-1.6.25c-.62.27-1,.59-1.06,1a1.67,1.67,0,0,0,.34,1.28C116.9,71.22,117.9,71.25,118.49,70.88Zm13.39,3.19c.17.12.21.35.13.69-.32.85-.61,1.72-.88,2.59-.08.21-.37.31-.88.29-.22,0-.37-.08-.43-.35l-.22-.47A54.13,54.13,0,0,0,125.72,71c-.15-.17-.19-.31-.13-.44s.29-.15.57,0A41.77,41.77,0,0,1,131.88,74.07Z"/><path class="cls-2" d="M144.9,73.41a16.59,16.59,0,0,1,2.69-.25,3.63,3.63,0,0,0,2-.31,7.28,7.28,0,0,0,1.16-5c0-.29,0-.48.1-.56.29-.17.91-.06,1.87.31s1.47.6,1.6.85c0,.08,0,.23-.25.44a7.1,7.1,0,0,0-1.47,2.75,11.15,11.15,0,0,0-.75,3.6c-.11.48-.29.64-.57.5a4.35,4.35,0,0,0-1.75-.38,21.37,21.37,0,0,0-4.72.25c-.05,1.8-.08,3.63-.1,5.51-.06,1.11.11,1.76.5,2a.9.9,0,0,1,.38.1,13.5,13.5,0,0,1,2.94-.16,4.47,4.47,0,0,0,2-.19,5.53,5.53,0,0,0,1.29-3.75.8.8,0,0,1,.12-.53c.29-.13.89,0,1.79.5s1.38.68,1.47.93-.08.23-.28.38a6.91,6.91,0,0,0-1.44,2.13,9.16,9.16,0,0,0-.94,2.82c-.07.56-.26.77-.6.62a4,4,0,0,0-2-.28,21,21,0,0,0-4.91.06q-5.53.78-7.14,1.82c-.27.14-.51,0-.72-.38l-.06-.09c-.06-.09-.66-.69-1.78-1.82a3.65,3.65,0,0,1-1-3.32,5.07,5.07,0,0,0,.09-1c0-.22.26-.41.78-.56a2.54,2.54,0,0,1,.91.06c.88.21,1.32.45,1.35.72s-.17.35-.57.6a1.33,1.33,0,0,0-.53,1.06,1.72,1.72,0,0,0,.28,1.07,1.42,1.42,0,0,0,.69.69,5.07,5.07,0,0,0,2.6-.35A16.71,16.71,0,0,1,142,83.8a2.32,2.32,0,0,0,.44-.56q.09-.22.18-7.17a16.71,16.71,0,0,0-5.28,1.75c-.26.11-.47,0-.66-.34a4.89,4.89,0,0,0-1.13-1.28,3.21,3.21,0,0,1-1.13-1.54,5.24,5.24,0,0,1-.09-3.31,5.21,5.21,0,0,0,.28-1.1c.07-.23.36-.37.88-.44a3.13,3.13,0,0,1,.94.22c.85.36,1.27.67,1.25.94s-.26.42-.78.69a1.59,1.59,0,0,0-.75,1.22,2.25,2.25,0,0,0,.15,1.38,2.1,2.1,0,0,0,.78.9c.32.17,1.13,0,2.45-.4a32.35,32.35,0,0,1,3.12-.88c0-.35,0-.7.07-1a44,44,0,0,1,0-4.45,51.86,51.86,0,0,0-.35-5.85c0-.1.1-.15.29-.15a5.2,5.2,0,0,1,2.94.78.39.39,0,0,1,.12.5Q145,64.4,144.9,73.41Z"/><path class="cls-2" d="M161.84,84.83a1.86,1.86,0,0,0-.68-.9,6.1,6.1,0,0,1-.54-.66,13.8,13.8,0,0,1-2-5c0-.21.14-.32.47-.34a7,7,0,0,0,2.16-.44q4.51-1.78,8,.37.41.34,0,.57a3.77,3.77,0,0,0-1.34,1.78,7.59,7.59,0,0,0-1.29,3.51c0,.35-.29.53-.81.53a6.23,6.23,0,0,0-3.57.69C162,85,161.91,85,161.84,84.83Zm2.41-2.75a2.63,2.63,0,0,0,1-1.35,1.81,1.81,0,0,0-.15-2,.82.82,0,0,0-.69-.25,6.54,6.54,0,0,0-2,.53c-.29.09-.47.19-.53.31a2.37,2.37,0,0,0-.07,1.73,2.13,2.13,0,0,0,.88,1.47,8.5,8.5,0,0,1,1.06-.22A1.37,1.37,0,0,0,164.25,82.08Zm2.44-8a1.81,1.81,0,0,0-.75-.94,11.44,11.44,0,0,1-2.22-6.45,2.31,2.31,0,0,0,0-.37c0-.23.17-.34.56-.34a9.87,9.87,0,0,0,2.79-.38,12.88,12.88,0,0,1,9.89.75q.49.34,0,.66-.94.43-2.19,2.91a11.1,11.1,0,0,0-1.25,3.35c-.11.35-.36.46-.76.31a9.37,9.37,0,0,0-3.09-.06,7.48,7.48,0,0,0-2.51.59C166.9,74.26,166.76,74.25,166.69,74.1Zm5.39-4.35a2.28,2.28,0,0,0,.09-2.57c-.12-.29-.47-.47-1-.53A10.61,10.61,0,0,0,168,67a1.83,1.83,0,0,0-.91.37,3,3,0,0,0-.37,2.26,2.86,2.86,0,0,0,.87,2.06.65.65,0,0,0,.44.1,8.71,8.71,0,0,1,1.63-.22A3,3,0,0,0,172.08,69.75Zm0,15.18a1.82,1.82,0,0,0-.6-1,10.62,10.62,0,0,1-1.81-6.23c0-.13-.08-.23-.1-.31s.11-.32.44-.38a14.16,14.16,0,0,0,1.79-.12,12.71,12.71,0,0,1,9.76.75c.33.23.33.44,0,.65a4,4,0,0,0-1.32,1.51,9.33,9.33,0,0,0-1.87,4.5c0,.36-.28.53-.85.53a8.08,8.08,0,0,0-5,.22C172.24,85.16,172.1,85.12,172.08,84.93Zm2.56-2.41a2.69,2.69,0,0,0,.91-.13,2.88,2.88,0,0,0,1.25-1.53,2.12,2.12,0,0,0,0-2.41c-.08-.25-.35-.41-.81-.47a8.88,8.88,0,0,0-2.54.16c-.41.06-.66.15-.75.28a3.08,3.08,0,0,0-.47,2,2.77,2.77,0,0,0,.69,1.94S173.52,82.46,174.64,82.52Z"/><line class="cls-3" x1="193.34" y1="65.16" x2="193.34" y2="85.69"/><path class="cls-2" d="M222.58,66.59h3.9v.48c-1.24,0-1.86.76-1.86,2.2,0,.12,0,.25,0,.38l.83,10.18A4.49,4.49,0,0,0,226,82a2,2,0,0,0,1.5.64v.48h-5.94v-.48a2.1,2.1,0,0,0,1.33-.62,2.26,2.26,0,0,0,.38-1.43c0-.14,0-.28,0-.44l-.88-10.68-5.66,13.65h-.43l-5.59-13.62-.93,10.16c0,.16,0,.31,0,.45a2.34,2.34,0,0,0,2.15,2.53v.48h-5.14v-.48a2.21,2.21,0,0,0,1.49-.73,4.82,4.82,0,0,0,.62-2.31l1-11.36a3.66,3.66,0,0,0-2.15-1.16v-.48h4.19l5.28,13Z"/><path class="cls-2" d="M232.08,83.43a2.92,2.92,0,0,1-2.06-.79,2.54,2.54,0,0,1-.86-1.93A2.32,2.32,0,0,1,229.9,79a7.56,7.56,0,0,1,3-1.33,9.83,9.83,0,0,0,1.91-.68v-.76a2.56,2.56,0,0,0-.62-1.79,2.11,2.11,0,0,0-1.66-.69,2.58,2.58,0,0,0-1.68.6,3.13,3.13,0,0,0-1,1.6l-.52-.14a3.9,3.9,0,0,1,1.34-2.28,3.64,3.64,0,0,1,6.12,2.89v4.37A4.32,4.32,0,0,0,236.9,82a.45.45,0,0,0,.46.33.41.41,0,0,0,.36-.19,3,3,0,0,0,.32-.79h.5a2.44,2.44,0,0,1-.6,1.52,1.82,1.82,0,0,1-1.39.56A1.78,1.78,0,0,1,234.82,82a5,5,0,0,1-1.35,1.14A2.91,2.91,0,0,1,232.08,83.43ZM234.82,81V77.58c-.29.12-.71.27-1.26.46a4.76,4.76,0,0,0-2,1,2.1,2.1,0,0,0-.43,1.39,2,2,0,0,0,.46,1.32,1.36,1.36,0,0,0,1.09.55,2.35,2.35,0,0,0,1.21-.37A2.2,2.2,0,0,0,234.82,81Z"/><path class="cls-2" d="M249.4,65h.48V81.14a1.5,1.5,0,0,0,.36,1.16,2,2,0,0,0,1.34.33v.48h-5.94a6,6,0,0,1-4.34-1.51,5,5,0,0,1-1.6-3.8,5.24,5.24,0,0,1,1.4-3.67,4.43,4.43,0,0,1,3.39-1.51,6.25,6.25,0,0,1,3.43,1.24V67.59a2.5,2.5,0,0,0-.27-1.39,1.26,1.26,0,0,0-1.08-.37H246v-.47Zm-1.48,16.1V74.94a4.61,4.61,0,0,0-1.39-1.26,3.21,3.21,0,0,0-1.58-.46,2.69,2.69,0,0,0-2.25,1.15,4.84,4.84,0,0,0-.86,3A5.9,5.9,0,0,0,243,81.19a4,4,0,0,0,3.29,1.45,1.77,1.77,0,0,0,1.24-.36A1.61,1.61,0,0,0,247.92,81.1Z"/><path class="cls-2" d="M262.8,80.49v.75a6.3,6.3,0,0,1-1.89,1.69,5,5,0,0,1-2.32.5,5.47,5.47,0,0,1-3.95-1.5,5.08,5.08,0,0,1-1.55-3.8,5.51,5.51,0,0,1,1.48-3.92,4.78,4.78,0,0,1,3.64-1.59,4.45,4.45,0,0,1,3.1,1.2,3.71,3.71,0,0,1,1.32,2.85v.21h-7.5V77a7.71,7.71,0,0,0,.51,2.93,4.35,4.35,0,0,0,1.5,2,3.52,3.52,0,0,0,2.06.71,3.33,3.33,0,0,0,1.71-.42A9.75,9.75,0,0,0,262.8,80.49Zm-7.67-4.1h5.56V76.2a3,3,0,0,0-.78-2.17,2.77,2.77,0,0,0-4,0A3.79,3.79,0,0,0,255.13,76.39Z"/><path class="cls-2" d="M292.48,66.59v.48a2.32,2.32,0,0,0-1.62.81,8.22,8.22,0,0,0-1.3,2.54l-4.64,12.91h-.52l-4.5-12.19-4.38,12.19h-.47L270,69.7a10.21,10.21,0,0,0-.75-1.66,2,2,0,0,0-.71-.76,3,3,0,0,0-1.34-.21v-.48h6.12v.48c-1,.12-1.45.47-1.45,1.07a2.84,2.84,0,0,0,.21.93L276,79.56l3.5-9.6-.36-1.07a3.1,3.1,0,0,0-.86-1.41,2.26,2.26,0,0,0-1.44-.41v-.48h6v.48c-1.07,0-1.6.33-1.6,1a3.23,3.23,0,0,0,.22,1l3.86,10.46,3.39-9.25a5.62,5.62,0,0,0,.41-1.83q0-1.44-1.65-1.44v-.45Z"/><path class="cls-2" d="M296.43,72.62h.5v8.6a1.4,1.4,0,0,0,.36,1.13,2.32,2.32,0,0,0,1.34.28v.48H293v-.48a2.83,2.83,0,0,0,1.58-.28,1.37,1.37,0,0,0,.35-1.13V74.93a1.73,1.73,0,0,0-.32-1.23,2.81,2.81,0,0,0-1.61-.29v-.48Z"/><path class="cls-2" d="M303.1,69.44h.48v3.43h3.55v.75h-3.55v6.57a2.36,2.36,0,0,0,.48,1.59,1.71,1.71,0,0,0,1.37.55,2.5,2.5,0,0,0,1.9-1l.32.38a3.85,3.85,0,0,1-3.08,1.7,2.81,2.81,0,0,1-2.12-.83,2.9,2.9,0,0,1-.82-2.14V73.62H299.7v-.49A7.75,7.75,0,0,0,303.1,69.44Z"/><path class="cls-2" d="M316.52,81v-5a2.26,2.26,0,0,0-.57-1.62,1.94,1.94,0,0,0-1.49-.61,2.73,2.73,0,0,0-1.54.45,5.46,5.46,0,0,0-1.43,1.5v5.6a1.33,1.33,0,0,0,.36,1.08,2.2,2.2,0,0,0,1.34.3v.48h-5.48v-.48a2.28,2.28,0,0,0,1.5-.38,2.6,2.6,0,0,0,.32-1.58V67.37a1.68,1.68,0,0,0-.33-1.23,2.35,2.35,0,0,0-1.49-.31v-.47L311,65h.48v9.66a7.48,7.48,0,0,1,1.78-1.58,3.48,3.48,0,0,1,1.79-.46,3.33,3.33,0,0,1,2.46,1,3.52,3.52,0,0,1,1,2.58v4.51a2.69,2.69,0,0,0,.32,1.58,1.76,1.76,0,0,0,1.33.38v.48h-5.31v-.48a2,2,0,0,0,1.37-.33A1.82,1.82,0,0,0,316.52,81Z"/><path class="cls-2" d="M340.87,80v-4.8h-9V80a3.64,3.64,0,0,0,.41,2,1.7,1.7,0,0,0,1.5.58v.48h-6v-.48A1.68,1.68,0,0,0,329.3,82a3.81,3.81,0,0,0,.39-2V69.71a3.77,3.77,0,0,0-.4-2.08,1.7,1.7,0,0,0-1.47-.56v-.48h6v.48a1.68,1.68,0,0,0-1.5.6,3.69,3.69,0,0,0-.41,2v4.71h9V69.7a3.86,3.86,0,0,0-.39-2.07,1.66,1.66,0,0,0-1.45-.56v-.48h5.91v.48a1.71,1.71,0,0,0-1.47.58,3.78,3.78,0,0,0-.4,2.06V80a3.76,3.76,0,0,0,.4,2,1.71,1.71,0,0,0,1.47.57v.48H339v-.48a1.64,1.64,0,0,0,1.47-.57A4,4,0,0,0,340.87,80Z"/><path class="cls-2" d="M356.77,80.49v.75a6.21,6.21,0,0,1-1.9,1.69,5,5,0,0,1-2.31.5,5.46,5.46,0,0,1-3.95-1.5,5.05,5.05,0,0,1-1.56-3.8,5.52,5.52,0,0,1,1.49-3.92,4.78,4.78,0,0,1,3.64-1.59,4.45,4.45,0,0,1,3.09,1.2,3.69,3.69,0,0,1,1.33,2.85v.21h-7.5V77a7.71,7.71,0,0,0,.51,2.93,4.35,4.35,0,0,0,1.5,2,3.47,3.47,0,0,0,2.05.71,3.28,3.28,0,0,0,1.71-.42A9.46,9.46,0,0,0,356.77,80.49Zm-7.67-4.1h5.55V76.2a3,3,0,0,0-.77-2.17,2.62,2.62,0,0,0-2-.81,2.57,2.57,0,0,0-2,.85A3.67,3.67,0,0,0,349.1,76.39Z"/><path class="cls-2" d="M361.48,83.43a2.91,2.91,0,0,1-2.05-.79,2.5,2.5,0,0,1-.86-1.93,2.28,2.28,0,0,1,.74-1.76,7.57,7.57,0,0,1,3-1.33,10,10,0,0,0,1.92-.68v-.76a2.56,2.56,0,0,0-.62-1.79A2.12,2.12,0,0,0,362,73.7a2.58,2.58,0,0,0-1.68.6,3.08,3.08,0,0,0-1,1.6l-.52-.14a4,4,0,0,1,1.35-2.28,3.65,3.65,0,0,1,6.12,2.89v4.37A4.43,4.43,0,0,0,366.3,82a.46.46,0,0,0,.46.33.43.43,0,0,0,.37-.19,3,3,0,0,0,.32-.79h.5a2.44,2.44,0,0,1-.6,1.52,1.84,1.84,0,0,1-1.39.56A1.77,1.77,0,0,1,364.23,82a5.2,5.2,0,0,1-1.35,1.14A3,3,0,0,1,361.48,83.43ZM364.23,81V77.58c-.29.12-.71.27-1.27.46a4.77,4.77,0,0,0-2,1,2.1,2.1,0,0,0-.43,1.39,2,2,0,0,0,.46,1.32,1.35,1.35,0,0,0,1.09.55,2.41,2.41,0,0,0,1.21-.37A2.2,2.2,0,0,0,364.23,81Z"/><path class="cls-2" d="M372.5,72.62v2.21a19.85,19.85,0,0,1,2.2-1.72,2.58,2.58,0,0,1,1.3-.49,2.83,2.83,0,0,1,1.87.8l-.77,1.82a5.9,5.9,0,0,0-2.42-.9,3.58,3.58,0,0,0-2.18,1.24v5.61a1.41,1.41,0,0,0,.36,1.14,2.16,2.16,0,0,0,1.35.3v.48h-5.39v-.48a2,2,0,0,0,1.4-.34,2.58,2.58,0,0,0,.33-1.62V75.09a1.84,1.84,0,0,0-.36-1.37,3.05,3.05,0,0,0-1.75-.31v-.48l3.58-.31Z"/><path class="cls-2" d="M383,69.44h.49v3.43h3.55v.75h-3.55v6.57a2.36,2.36,0,0,0,.48,1.59,1.7,1.7,0,0,0,1.37.55,2.48,2.48,0,0,0,1.89-1l.33.38a3.88,3.88,0,0,1-3.08,1.7,2.83,2.83,0,0,1-2.13-.83,2.94,2.94,0,0,1-.82-2.14V73.62h-1.93v-.49A7.7,7.7,0,0,0,383,69.44Z"/><path class="cls-2" d="M299.25,68.57a.83.83,0,0,0-.39-.54,1.33,1.33,0,0,0-.75-.24,1.24,1.24,0,0,0-.77.34l-.29.28-.43.59a7.26,7.26,0,0,0,.09-1.17.85.85,0,0,0-.35-.6,1.27,1.27,0,0,0-.75-.25,1,1,0,0,0-.68.19.74.74,0,0,0-.18.69,6.37,6.37,0,0,0,.36,1.27l.46,1.33.24.67.59-.33,1.35-.77a7.71,7.71,0,0,0,1.26-.89A.62.62,0,0,0,299.25,68.57Z"/></svg>