<?xml version="1.0" encoding="UTF-8" standalone="no" ?>
<!DOCTYPE svg PUBLIC "-//W3C//DTD SVG 1.1//EN" "http://www.w3.org/Graphics/SVG/1.1/DTD/svg11.dtd">
<svg xmlns="http://www.w3.org/2000/svg" xmlns:xlink="http://www.w3.org/1999/xlink" version="1.1" width="1080" height="1080" viewBox="0 0 1080 1080" xml:space="preserve">
<desc>Created with Fabric.js 5.2.4</desc>
<defs>
</defs>
<g transform="matrix(1 0 0 1 540 540)" id="3de747cc-24cf-42c1-ad75-2c9cff693a60"  >
<rect style="stroke: none; stroke-width: 1; stroke-dasharray: none; stroke-linecap: butt; stroke-dashoffset: 0; stroke-linejoin: miter; stroke-miterlimit: 4; fill: rgb(255,255,255); fill-rule: nonzero; opacity: 1; visibility: hidden;" vector-effect="non-scaling-stroke"  x="-540" y="-540" rx="0" ry="0" width="1080" height="1080" />
</g>
<g transform="matrix(1 0 0 1 540 540)" id="f2cced70-14c0-41f3-bb17-a74942631721"  >
</g>
<g transform="matrix(4.44 0 0 4.44 527.88 460.81)"  >
<path style="stroke: none; stroke-width: 1; stroke-dasharray: none; stroke-linecap: butt; stroke-dashoffset: 0; stroke-linejoin: miter; stroke-miterlimit: 4; fill: rgb(255,255,255); fill-rule: evenodd; opacity: 1;" vector-effect="non-scaling-stroke"  transform=" translate(-104.01, -100.92)" d="M 103.58 169.77 C 120.49 165.92000000000002 126.14 151.66000000000003 126.89 149.77 C 127.76 147.63000000000002 129.07 142.28 128.76 140.24 C 128.53 138.70000000000002 126.86999999999999 138.63 126.27 137.24 C 132.89 132.58 139.81 145.24 133.98 149.72 C 134.25 147.67 132.44 142.78 130.98 141.17 C 131.53 141.76999999999998 130.98 143.85 130.84 144.48 C 130.49880232635132 146.51354910742145 130.0074583423491 148.51903475641012 129.37 150.48 C 128.18 153.81 124.37 162.92999999999998 116.59 168.29 C 111.18 172.03 105.29 174.62 98.66 174.92999999999998 C 83.94999999999999 175.62999999999997 75.97999999999999 166.21999999999997 72.52 159.45999999999998 C 69.52 153.54999999999998 67.74 144.65999999999997 72.06 138.63 C 73.66 136.4 77.48 134.49 78.87 137.95 C 79.02000000000001 138.32 77.60000000000001 140.45999999999998 77.39 140.89999999999998 C 76.93 141.89999999999998 76.49 142.89999999999998 76.12 143.89999999999998 C 75.37214189550335 145.8173131789002 74.94313776447184 147.84410434912783 74.85000000000001 149.89999999999998 C 74.71000000000001 153.89999999999998 76.48 157.45999999999998 78.85000000000001 160.64 C 89.48 175.01 103.41000000000001 169.82999999999998 103.41000000000001 169.82999999999998 C 100.50000000000001 167.82999999999998 98.76 164.52999999999997 97.48000000000002 160.89999999999998 C 92.07000000000002 158.54999999999998 84.39000000000001 153.52999999999997 84.55000000000001 145.89999999999998 C 84.55000000000001 145.29999999999998 84.83000000000001 137.51 93.85000000000001 131.83999999999997 C 95.64415312719186 130.74576150165532 97.54368923774055 129.8345201928912 99.52000000000001 129.11999999999998 C 100.23 127.25999999999998 99.97000000000001 124.42999999999998 101.52000000000001 123.44999999999997 C 103.30000000000001 123.71999999999997 104.20000000000002 125.79999999999997 103.79 127.52999999999997 C 112.58000000000001 124.22999999999998 122.42 121.52999999999997 130.33 115.72999999999998 C 144.96 105.00999999999998 153.45000000000002 83.79999999999998 147.12 66.06999999999998 C 144.59 58.98999999999998 137.33 52.87999999999998 129.69 56.84999999999998 C 117.53 63.16999999999998 117.64 78.04999999999998 117.21 89.84999999999998 C 117.02999999999999 94.84999999999998 116.72 99.84999999999998 116.1 104.72999999999998 C 115.46 109.83999999999997 115.1 115.98999999999998 110.86 119.58999999999997 C 108.99558079489586 121.24976730471549 106.5367590798459 122.08069859456896 104.04771706021191 121.89213480520274 C 101.55867504057792 121.70357101583653 99.25309590417571 120.51170026753972 97.66 118.58999999999997 C 88.52 107.28999999999998 91.66 93.58999999999997 98.66 82.89999999999998 C 105.14 72.89999999999998 112.66 62.10999999999998 115.77 50.50999999999998 C 116.97999999999999 46.03999999999998 117.06 40.41999999999997 113.22 37.049999999999976 C 103.36 28.389999999999976 87.41 32.60999999999998 78.61 40.689999999999976 C 63.09 55.13 63 70.75 62.9 75.5 C 62.339999999999996 107.12 83.47 119.08 86.06 121.71000000000001 C 87.29 122.95 90.06 125.03 90.43 126.84 C 91.29 130.61 85.71000000000001 127.75 84 126.84 C 69 119.23 59.53 102.68 56.71 86.62 C 53.65 69.25 58 50.47 71.2 38.14 C 78.11 31.66 105.95 16.93 119.66 37.14 C 126.39999999999999 47.07 119.55 59.31 114.47 67.92 C 108.47 78.04 98.47 89.76 96.55 102.53 C 95.94 106.53 96.55 112.15 97.91 115.23 C 99.57 118.87 103.91 122.13000000000001 107.44 120.45 C 109.36 119.54 112.06 114.75 112.88 112.51 C 114.66 107.7 114.19999999999999 101 114.25 95.51 C 114.47 69.42 122.16 57.75000000000001 130.12 54.32000000000001 C 134.26 52.540000000000006 138.6 51.75000000000001 142.6 54.32000000000001 C 151.77 60.2 154 76.44 151 90.83 C 147.5 107.42 133.14 119.38 117.75999999999999 124.52 C 116.07 125.08 103.60999999999999 128.04999999999998 103.36999999999999 129.4 C 103.02999999999999 131.26000000000002 102.6 133.02 102.22999999999999 134.84 C 108.6 131.5 122.05999999999999 132.24 123.77999999999999 141.19 C 124.23043519300573 144.34908931709427 123.57699450954684 147.56684316915405 121.92999999999999 150.3 C 119.52 154.73000000000002 113.92999999999999 160.63000000000002 105.85 161.54000000000002 C 105.44999999999999 161.59000000000003 100.22 161.91000000000003 100.19 161.61 C 100.49635117706524 164.60332982099763 101.67513580565148 167.4407583075061 103.58 169.77 Z M 116.74 150 C 118.74 147.21 121.31 141.43 118.74 138.2 C 115.38 133.92 106.63 136.08999999999997 101.5 137.51999999999998 C 101.28 140.77999999999997 100.27 143.24999999999997 100.14 146.6 C 103.32095827166106 145.64371841283534 106.26021074761299 144.01724111465776 108.76 141.82999999999998 C 109.76 140.89999999999998 110.22 139.42 111.48 139.33999999999997 C 112.71506104552212 139.38078101083605 113.79876171778213 140.17470091725363 114.21000000000001 141.33999999999997 C 111.99000000000001 147.42 105.21000000000001 150.67999999999998 99.21000000000001 151.53999999999996 C 99.21000000000001 153.90999999999997 98.93 155.10999999999996 99.44000000000001 157.44999999999996 C 106.10683556541265 158.12450740808526 112.64909221355893 155.3071772330165 116.74 150 Z M 90 145.73 C 89.3 141.11999999999998 95.47 139.6 97.94 136.66 C 98.51414872161484 135.0436275452392 98.89676179019784 133.3655000514541 99.08 131.66 C 93.59 134.87 88.7 138.82 88.94 147.57 C 91.39 147.66 93.8 148.31 96.58 147.76999999999998 C 96.84 145.30999999999997 97.26 139.82999999999998 97.26 139.82999999999998 C 94.86 141.84 91.63 143 90 145.73 Z M 96.13 151.61999999999998 C 96.13 151.61999999999998 91.06 151.61999999999998 90 151.39999999999998 C 91.83 153.64999999999998 93.79 155.77999999999997 96.81 156.83999999999997 C 96.72442662413663 155.08277014922714 96.48687291270211 153.33624849614532 96.1 151.61999999999998 Z" stroke-linecap="round" />
</g>
<g transform="matrix(4.44 0 0 4.44 532.1 871.45)"  >
<path style="stroke: none; stroke-width: 1; stroke-dasharray: none; stroke-linecap: butt; stroke-dashoffset: 0; stroke-linejoin: miter; stroke-miterlimit: 4; fill: rgb(255,255,255); fill-rule: evenodd; opacity: 1;" vector-effect="non-scaling-stroke"  transform=" translate(-104.96, -193.44)" d="M 84.38 195.53 C 87.38 200.76 92.72999999999999 203.12 97.96 205.59 C 104.13 208.49 110.08999999999999 211.81 116.22 214.8 C 123.6 208.67000000000002 135.79 170.16000000000003 118.5 172.15 C 115.86 172.46 109.89 175.59 111 187.02 C 103.76 183.28 94.43 175.3 86.14 180.4 C 82.19010889128099 184.4606415324252 81.4676750256132 190.67110993444416 84.38 195.53 Z M 115.84 180 C 115.37 176.81 117.27000000000001 175.22 121.05 174.92 C 123.17999999999999 177.29 126.47999999999999 184.04999999999998 123.28 186.82999999999998 C 122.18 182.49 121.32 177.85 115.84 180 Z M 118.01 180.63 C 121.53 182.7 124.01 194.5 120.01 196.63 C 122.13 190.09 114.68 184 118 180.58 Z M 115.16000000000001 203.76 C 114.50000000000001 198.10999999999999 114.68 193.04999999999998 117.70000000000002 189.92999999999998 C 118.25 195.44 118.88 201.06 115.16 203.71 Z M 101.70000000000002 186.76 C 101.97000000000001 190.62 95.17000000000002 185.07999999999998 90.60000000000002 187.81 C 89.57203932711204 189.46875928884688 89.97982104163269 191.63781096182913 91.54000000000002 192.81 C 88.54000000000002 192.09 86.14000000000001 190.59 85.27000000000002 186.81 C 90.54 182.4 96.65 186.62 101.7 186.72 Z M 100.46000000000002 191.1 C 97.11000000000003 190.82 99.72000000000003 194.63 97.05000000000003 194.82 C 95.93000000000002 192.23999999999998 92.44000000000003 193.12 91.97000000000003 189.60999999999999 C 94.42 190.61 99.34 188.07 100.46 191.06 Z M 90.46000000000002 181.67 C 94.52000000000002 180.36999999999998 96.33000000000003 182.36999999999998 99.76000000000002 181.98999999999998 C 109 189.18 94.28 184 90.48 181.63 Z M 109.25000000000003 199.67 C 106.53000000000003 197.32999999999998 103.25000000000003 195.73999999999998 100.82000000000002 193.04 C 104.86 192.69 110.71 196.25 109.27 199.67 Z M 85.56000000000003 193.85 C 91.12000000000003 192.69 98.11000000000003 199.78 103.67000000000003 202.78 C 97 200.78 90.64 198.25 85.58 193.85 Z" stroke-linecap="round" />
</g>
<g transform="matrix(4.44 0 0 4.44 540 540)"  >
<path style="stroke: none; stroke-width: 1; stroke-dasharray: none; stroke-linecap: butt; stroke-dashoffset: 0; stroke-linejoin: miter; stroke-miterlimit: 4; fill: rgb(255,255,255); fill-rule: nonzero; opacity: 1;" vector-effect="non-scaling-stroke"  transform=" translate(-106.74, -118.77)" d="M 106.74 237.54 C 101.66128780843758 237.547121176338 96.67037833929417 236.21575209887473 92.27 233.67999999999998 L 14.48 188.76 C 5.528892940153616 183.5825741766403 0.01183466499704977 174.03059551930778 -1.7763568394002505e-15 163.69 L 0 73.87 C 0.01852220247439942 63.5285854583022 5.533316258298058 53.97671840581205 14.479999999999993 48.79 L 92.27 3.88 C 101.24263122599659 -1.30035105366838 112.2973687740034 -1.3003510536683764 121.27 3.88 L 199 48.79 C 207.94668374170192 53.97671840581204 213.4614777975256 63.52858545830218 213.48 73.86999999999998 L 213.48 163.69 C 213.4614777975256 174.0314145416978 207.94668374170195 183.58328159418795 199 188.77 L 121.21 233.68 C 116.80944019437024 236.2153127724847 111.81865072995846 237.5466498376284 106.74 237.54 Z M 106.74 6 C 102.71227575407536 5.999655593093618 98.75576746467516 7.0620832767337784 95.27000000000001 9.079999999999995 L 17.48 54 C 10.386482471926131 58.104935019829526 6.013198949123195 65.67437261548234 6.000000000000002 73.87000000000002 L 6 163.69 C 6.0096369480657 171.88920099232166 10.383396603422195 179.46327259062195 17.480000000000004 183.57 L 95.27000000000001 228.48 C 102.38622476544558 232.58855428394386 111.15377523455444 232.58855428394386 118.27000000000001 228.48 L 196 183.57 C 203.0966033965778 179.46327259062193 207.4703630519343 171.88920099232166 207.48 163.69 L 207.48 73.87 C 207.4668010508768 65.67437261548233 203.09351752807387 58.104935019829526 196 54 L 118.22 9.08 C 114.73111474220076 7.060823976713129 110.77105314937378 5.998368427418081 106.74 5.999999999999998 Z" stroke-linecap="round" />
</g>
</svg>